<?xml version="1.0" encoding="utf-8"?>
<!-- Generator: Adobe Illustrator 19.0.0, SVG Export Plug-In . SVG Version: 6.00 Build 0)  -->
<svg version="1.1" id="Layer_1" xmlns="http://www.w3.org/2000/svg" xmlns:xlink="http://www.w3.org/1999/xlink" x="0px" y="0px"
	 viewBox="0 0 200 200" style="enable-background:new 0 0 200 200;" xml:space="preserve">
<style type="text/css">
	.st0{fill:none;stroke:#000000;stroke-miterlimit:10;}
	.st1{font-family:'MyriadPro-Regular';}
	.st2{font-size:21px;}
</style>
<g id="XMLID_3_">
	<g id="XMLID_8_">
		<path id="XMLID_14_" class="st0" d="M78.3,79.1l2.4,11.5l-7.9-8.9c-10.2,3.5-20.8,0.4-24.5-7.6c-4-8.6,1.7-19.7,12.6-24.8
			c8.8-4,18.3-2.9,23.8,2.2c-2.5,2.8-4,6.3-4,10c0,4.1,1.8,7.9,4.9,10.9C83.8,75,81.3,77.3,78.3,79.1z"/>
		<text id="XMLID_1_" transform="matrix(0.9087 -0.4174 0.4174 0.9087 67.4791 73.7807)" class="st1 st2">?</text>
	</g>
	<g id="XMLID_6_">
		<path id="XMLID_19_" class="st0" d="M124.4,61.5c0,4.4-2.1,8.5-5.6,11.5c-3.3,2.9-7.8,4.9-12.9,5.5L103.3,90l-3.4-11.4
			c-5.7-0.6-10.8-2.9-14.2-6.2c-3.1-3-4.9-6.8-4.9-10.9c0-3.7,1.5-7.2,4-10c4-4.4,10.4-7.2,17.8-7.2c7.3,0,13.7,2.8,17.6,7.1
			C122.8,54.3,124.4,57.8,124.4,61.5z"/>
		<text id="XMLID_2_" transform="matrix(1 0 0 1 99.5 68.1602)" class="st1 st2">!</text>
	</g>
	<g id="XMLID_7_">
		<path id="XMLID_13_" class="st0" d="M157,71.3c-2.6,8.2-12.3,12.7-22.7,10.8l-5.9,10.2l0.1-11.9c-4.1-1.7-7.4-4.3-9.8-7.3
			c3.5-3,5.6-7.1,5.6-11.5c0-3.8-1.5-7.3-4.2-10.1c5.1-4.1,13.2-5.6,21.2-3.1C152.8,51.9,159.9,62.2,157,71.3z"/>
		<text id="XMLID_4_" transform="matrix(0.9549 0.2971 -0.2971 0.9549 129.8505 70.7863)" class="st1 st2">?</text>
	</g>
</g>
</svg>
